<?xml version="1.0" encoding="utf-8"?>
<!-- Generator: Adobe Illustrator 25.3.1, SVG Export Plug-In . SVG Version: 6.00 Build 0)  -->
<svg version="1.1" id="Layer_1" xmlns="http://www.w3.org/2000/svg" xmlns:xlink="http://www.w3.org/1999/xlink" x="0px" y="0px"
	 viewBox="0 0 24 24" style="enable-background:new 0 0 24 24;" xml:space="preserve">
<style type="text/css">
	.st0{fill:#FFFFFF;}
</style>
<path class="st0" d="M12,0C5.4,0,0,5.4,0,12s5.4,12,12,12s12-5.4,12-12S18.6,0,12,0z M16.9,17.3c-0.2,0-0.3-0.1-0.6-0.2
	c-1.7-1-3.8-1.6-6.1-1.6c-1.2,0-2.6,0.2-3.7,0.5C6.3,15.9,6,16,5.9,16c-0.5,0-0.8-0.3-0.8-0.8s0.2-0.8,0.7-0.8
	c1.5-0.3,2.9-0.6,4.5-0.6c2.6,0,5,0.7,7,1.8c0.2,0.2,0.5,0.3,0.5,0.8C17.5,17.1,17.2,17.3,16.9,17.3z M18.1,14.1
	c-0.2,0-0.5-0.1-0.7-0.2c-1.9-1.2-4.6-1.9-7.6-1.9C8.4,12,7,12.2,6,12.4c-0.2,0.1-0.3,0.1-0.6,0.1c-0.6,0-0.9-0.5-0.9-0.9
	c0-0.6,0.2-0.8,0.8-1C6.7,10.3,8.1,10,10,10c3.2,0,6.1,0.8,8.6,2.3c0.3,0.2,0.6,0.6,0.6,0.9C19,13.7,18.7,14.1,18.1,14.1z
	 M19.6,10.5c-0.2,0-0.3-0.1-0.7-0.2c-2.3-1.2-5.5-2-8.7-2c-1.6,0-3.3,0.2-4.7,0.6c-0.2,0-0.3,0.1-0.7,0.1C4.1,9,3.7,8.5,3.7,7.8
	s0.3-1,0.8-1.1C6.3,6.2,8.2,6,10.2,6c3.5,0,7.1,0.8,9.9,2.3c0.3,0.2,0.7,0.6,0.7,1.1C20.7,10.1,20.3,10.5,19.6,10.5z"/>
</svg>
