<?xml version="1.0" encoding="utf-8"?>
<!-- Generator: Adobe Illustrator 25.3.1, SVG Export Plug-In . SVG Version: 6.00 Build 0)  -->
<svg version="1.1" id="Layer_1" xmlns="http://www.w3.org/2000/svg" xmlns:xlink="http://www.w3.org/1999/xlink" x="0px" y="0px"
	 viewBox="0 0 20 20" style="enable-background:new 0 0 20 20;" xml:space="preserve">
<style type="text/css">
	.st0{fill:#FFFFFF;}
</style>
<path class="st0" d="M13,7.6V2.4C13,2.2,12.8,2,12.6,2H7.4C7.2,2,7,2.2,7,2.4v5.2C7,7.8,6.8,8,6.6,8H2.9C2.6,8,2.4,8.4,2.7,8.7
	l7.1,7.1c0.2,0.2,0.4,0.2,0.5,0l7.1-7.1C17.6,8.4,17.4,8,17.1,8h-3.7C13.2,8,13,7.8,13,7.6z M0.4,18h19.2c0.2,0,0.4,0.2,0.4,0.4v1.2
	c0,0.2-0.2,0.4-0.4,0.4H0.4C0.2,20,0,19.8,0,19.6v-1.2C0,18.2,0.2,18,0.4,18z"/>
</svg>
