<?xml version="1.0" encoding="utf-8"?>
<!-- Generator: Adobe Illustrator 25.3.1, SVG Export Plug-In . SVG Version: 6.00 Build 0)  -->
<svg version="1.1" id="Layer_1" xmlns="http://www.w3.org/2000/svg" xmlns:xlink="http://www.w3.org/1999/xlink" x="0px" y="0px"
	 viewBox="0 0 24 24" style="enable-background:new 0 0 24 24;" xml:space="preserve">
<style type="text/css">
	.st0{fill:#FFFFFF;}
</style>
<path class="st0" d="M10.7,0.1C5.1,0.7,0.7,5.3,0.1,10.9c-0.6,5.8,2.6,11,7.6,13C8,24,8.4,23.7,8.4,23.2v-2c0,0-0.5,0.1-1.1,0.1
	c-1.7,0-2.4-1.5-2.5-2.4c-0.1-0.5-0.4-0.9-0.7-1.2c-0.4-0.1-0.5-0.1-0.5-0.2c0-0.2,0.4-0.2,0.5-0.2c0.7,0,1.3,0.9,1.6,1.2
	c0.6,1,1.3,1.2,1.7,1.2c0.5,0,0.8-0.1,1.1-0.2c0.1-0.9,0.5-1.7,1.2-2.2c-2.8-0.6-4.8-2.2-4.8-5c0-1.4,0.6-2.7,1.4-3.7
	C6.1,8.4,6,7.8,6,6.9c0-0.5,0-1.2,0.4-2c0,0,1.7,0,3.4,1.6c0.6-0.2,1.4-0.4,2.3-0.4c0.8,0,1.7,0.1,2.4,0.4c1.6-1.6,3.4-1.6,3.4-1.6
	C18,5.7,18,6.4,18,6.9c0,1-0.1,1.5-0.2,1.7c0.8,1,1.4,2.2,1.4,3.7c0,2.7-2,4.3-4.8,5c0.7,0.6,1.2,1.7,1.2,2.8v3.2
	c0,0.4,0.4,0.7,0.8,0.6c4.4-1.9,7.6-6.3,7.6-11.5C24,5,17.9-0.8,10.7,0.1z"/>
</svg>
