<?xml version="1.0" encoding="utf-8"?>
<!-- Generator: Adobe Illustrator 25.3.1, SVG Export Plug-In . SVG Version: 6.00 Build 0)  -->
<svg version="1.1" id="Layer_1" xmlns="http://www.w3.org/2000/svg" xmlns:xlink="http://www.w3.org/1999/xlink" x="0px" y="0px"
	 viewBox="0 0 24 24" style="enable-background:new 0 0 24 24;" xml:space="preserve">
<style type="text/css">
	.st0{fill:#FFFFFF;}
</style>
<path class="st0" d="M6.7,0C3,0,0,3,0,6.7v10.7C0,21,3,24,6.7,24h10.7c3.7,0,6.7-3,6.7-6.7V6.7C24,3,21,0,17.3,0H6.7z M6.7,2.7h10.7
	c2.2,0,4,1.8,4,4v10.7c0,2.2-1.8,4-4,4H6.7c-2.2,0-4-1.8-4-4V6.7C2.7,4.5,4.5,2.7,6.7,2.7z M18.7,4c-0.7,0-1.3,0.6-1.3,1.3
	s0.6,1.3,1.3,1.3c0.7,0,1.3-0.6,1.3-1.3S19.4,4,18.7,4z M12,5.3c-3.7,0-6.7,3-6.7,6.7s3,6.7,6.7,6.7s6.7-3,6.7-6.7S15.7,5.3,12,5.3z
	 M12,8c2.2,0,4,1.8,4,4s-1.8,4-4,4s-4-1.8-4-4S9.8,8,12,8z"/>
</svg>
