<?xml version="1.0" encoding="utf-8"?>
<!-- Generator: Adobe Illustrator 25.3.1, SVG Export Plug-In . SVG Version: 6.00 Build 0)  -->
<svg version="1.1" id="Capa_1" xmlns="http://www.w3.org/2000/svg" xmlns:xlink="http://www.w3.org/1999/xlink" x="0px" y="0px"
	 viewBox="0 0 400 400" style="enable-background:new 0 0 400 400;" xml:space="preserve">
<style type="text/css">
	.st0{fill:#FFFFFF;}
</style>
<g id="XMLID_1_">
	<polygon id="XMLID_869_" class="st0" points="0,127.5 0,274.2 104.8,206.1 	"/>
	<polygon id="XMLID_870_" class="st0" points="400,274.2 400,127.5 295.2,206.1 	"/>
	<path id="XMLID_871_" class="st0" d="M200,277.5l-69.6-52.2L0,310v9c0,11.6,9.4,21,21,21h358c11.6,0,21-9.4,21-21v-9l-130.4-84.7
		L200,277.5z"/>
	<path id="XMLID_872_" class="st0" d="M0,90l200,150L400,90v-9c0-11.6-9.4-21-21-21H21C9.4,60,0,69.4,0,81V90z"/>
</g>
</svg>
