<svg id="Layer_1" data-name="Layer 1" xmlns="http://www.w3.org/2000/svg" xmlns:xlink="http://www.w3.org/1999/xlink" viewBox="0 0 400 400"><defs><style>.cls-1{fill:url(#linear-gradient);}.cls-2{fill:url(#linear-gradient-2);}.cls-3{fill:none;stroke:#603913;stroke-width:5px;}.cls-3,.cls-8{stroke-miterlimit:10;}.cls-4{fill:url(#linear-gradient-3);}.cls-5{fill:url(#linear-gradient-4);}.cls-6{fill:url(#linear-gradient-5);}.cls-7{fill:#231f20;}.cls-8{fill:#f15a29;stroke:#f15a29;stroke-width:3px;}.cls-9{fill:url(#linear-gradient-6);}.cls-10{fill:#39b54a;}</style><linearGradient id="linear-gradient" x1="200" y1="258.42" x2="200" y2="5.07" gradientUnits="userSpaceOnUse"><stop offset="0" stop-color="#27aae1"/><stop offset="1" stop-color="#1c75bc"/></linearGradient><linearGradient id="linear-gradient-2" x1="200.54" y1="272.56" x2="199.45" y2="398.51" gradientUnits="userSpaceOnUse"><stop offset="0" stop-color="#fff"/><stop offset="1" stop-color="#d1d3d4"/></linearGradient><linearGradient id="linear-gradient-3" x1="205.39" y1="358.34" x2="205.39" y2="281.71" gradientUnits="userSpaceOnUse"><stop offset="0" stop-color="#d1d3d4"/><stop offset="1" stop-color="#f1f2f2"/></linearGradient><linearGradient id="linear-gradient-4" x1="205.39" y1="216.52" x2="205.39" y2="162.61" xlink:href="#linear-gradient-3"/><linearGradient id="linear-gradient-5" x1="205.39" y1="127.65" x2="205.39" y2="91.86" xlink:href="#linear-gradient-3"/><linearGradient id="linear-gradient-6" x1="199" y1="48.64" x2="231.89" y2="55.3" gradientUnits="userSpaceOnUse"><stop offset="0" stop-color="#231f20"/><stop offset="1" stop-color="#6d6e71"/></linearGradient></defs><rect class="cls-1" width="400" height="270"/><rect class="cls-2" y="270" width="400" height="130"/><path class="cls-3" d="M250.9,168.24c10.39,9.85,33.73,28.15,48,31,2.53,11.69,7.32,30.8,4.17,42.67"/><line class="cls-3" x1="322.11" y1="234.07" x2="303.47" y2="221.46"/><line class="cls-3" x1="285.97" y1="194.11" x2="283.27" y2="180.9"/><path class="cls-3" d="M160.47,166.79c-18.51,13.09-27,26.79-30.53,49.11-15.4,7.26-39,23.83-57,18.77"/><line class="cls-3" x1="85.73" y1="250.58" x2="98.82" y2="231.38"/><line class="cls-3" x1="134.3" y1="198.68" x2="106.4" y2="197.23"/><path class="cls-4" d="M228.54,228.3C303.6,251,285.22,370.89,205.39,368.5c-79.82,2.38-98.21-117.49-23.14-140.2,0,0,5.67-2.62,22-2.73C224.94,225.43,228.54,228.3,228.54,228.3Z"/><path class="cls-5" d="M218.44,127c60.07,13.05,49.35,108.09-13.05,106.41C143,235.11,132.27,140.08,192.33,127a52.57,52.57,0,0,1,12.15-1.54A58,58,0,0,1,218.44,127Z"/><path class="cls-6" d="M237.06,99.52c.6,41.09-63.94,41.09-63.33,0C173.13,58.44,237.67,58.44,237.06,99.52Z"/><path class="cls-7" d="M195.73,94.62c3.22,0,3.22-5,0-5s-3.22,5,0,5Z"/><path class="cls-7" d="M215.06,94.62c3.22,0,3.22-5,0-5s-3.22,5,0,5Z"/><path class="cls-7" d="M205.39,119.26c3.22,0,3.23-5,0-5s-3.22,5,0,5Z"/><path class="cls-7" d="M215.92,117c3.22,0,3.22-5,0-5s-3.22,5,0,5Z"/><path class="cls-7" d="M194.87,117c3.22,0,3.22-5,0-5s-3.22,5,0,5Z"/><path class="cls-7" d="M187.66,109.86c3.22,0,3.22-5,0-5s-3.22,5,0,5Z"/><path class="cls-7" d="M223.13,109.86c3.21,0,3.22-5,0-5s-3.23,5,0,5Z"/><path class="cls-8" d="M207.74,100.44l-13.15-1c-3.17-.51-19.35-5.51-22.2-3.26C180.85,95.59,209.65,115.37,207.74,100.44Z"/><path class="cls-7" d="M205.39,157.46a5,5,0,1,0-5-5,5,5,0,0,0,5,5Z"/><path class="cls-7" d="M205.39,183.68a5,5,0,1,0-5-5,5,5,0,0,0,5,5Z"/><path class="cls-7" d="M205.39,213a5,5,0,1,0-5-5,5.1,5.1,0,0,0,5,5Z"/><path class="cls-7" d="M205.39,264.29a5,5,0,1,0-5-5,5,5,0,0,0,5,5Z"/><path class="cls-7" d="M205.39,303.4a5,5,0,1,0-5-5,5,5,0,0,0,5,5Z"/><path class="cls-7" d="M205.39,340.29a5,5,0,1,0-5-5,5,5,0,0,0,5,5Z"/><path class="cls-9" d="M183,68c-8,5,62.34,17.55,56.65,10.17.84-2.4-10.16-2.62-11.11-3.28l7.91-44.07c1.07-2.15-34.27-8.26-34-6.11l-7.91,44.08C193.47,69,183,65.44,183,68Z"/><path class="cls-10" d="M183.8,124c12.47,1.09,25.47,7.43,37.63,1.92,2.71-1.23,20.44,12.05,20.44,12.05-16.53,10-55,4.2-71.2-1.34C168.22,133.51,183.45,129.32,183.8,124Z"/><path class="cls-10" d="M169,184.47c4-4.44,11.57-68,23.8-56.28l-6.5,61.28C186.17,192.57,168,187.05,169,184.47Z"/></svg>