<svg id="Layer_1" data-name="Layer 1" xmlns="http://www.w3.org/2000/svg" xmlns:xlink="http://www.w3.org/1999/xlink" viewBox="0 0 400 400"><defs><style>.cls-1{fill:url(#linear-gradient);}.cls-2{fill:url(#linear-gradient-2);}.cls-3{fill:url(#linear-gradient-3);}.cls-4{fill:url(#linear-gradient-4);}.cls-5{fill:url(#linear-gradient-5);}</style><linearGradient id="linear-gradient" x1="200" y1="258.42" x2="200" y2="5.07" gradientUnits="userSpaceOnUse"><stop offset="0" stop-color="#27aae1"/><stop offset="1" stop-color="#1c75bc"/></linearGradient><linearGradient id="linear-gradient-2" x1="200.54" y1="272.56" x2="199.45" y2="398.51" gradientUnits="userSpaceOnUse"><stop offset="0" stop-color="#fff"/><stop offset="1" stop-color="#d1d3d4"/></linearGradient><linearGradient id="linear-gradient-3" x1="205.39" y1="358.34" x2="205.39" y2="281.71" gradientUnits="userSpaceOnUse"><stop offset="0" stop-color="#d1d3d4"/><stop offset="1" stop-color="#f1f2f2"/></linearGradient><linearGradient id="linear-gradient-4" x1="205.39" y1="216.52" x2="205.39" y2="162.61" xlink:href="#linear-gradient-3"/><linearGradient id="linear-gradient-5" x1="205.39" y1="127.65" x2="205.39" y2="91.86" xlink:href="#linear-gradient-3"/></defs><rect class="cls-1" width="400" height="270"/><rect class="cls-2" y="270" width="400" height="130"/><path class="cls-3" d="M228.54,228.3C303.6,251,285.22,370.89,205.39,368.5c-79.82,2.38-98.21-117.49-23.14-140.2,0,0,5.67-2.62,22-2.73C224.94,225.43,228.54,228.3,228.54,228.3Z"/><path class="cls-4" d="M218.44,127c60.07,13.05,49.35,108.09-13.05,106.41C143,235.11,132.27,140.08,192.33,127a52.57,52.57,0,0,1,12.15-1.54A58,58,0,0,1,218.44,127Z"/><path class="cls-5" d="M237.06,99.52c.6,41.09-63.94,41.09-63.33,0C173.13,58.44,237.67,58.44,237.06,99.52Z"/></svg>